<?xml version="1.0" encoding="UTF-8"?>
<svg width="20px" height="20px" viewBox="0 0 20 20" version="1.1" xmlns="http://www.w3.org/2000/svg" xmlns:xlink="http://www.w3.org/1999/xlink">
    <!-- Generator: Sketch 64 (93537) - https://sketch.com -->
    <title>Group</title>
    <desc>Created with Sketch.</desc>
    <g id="BCtrend" stroke="none" stroke-width="1" fill="none" fill-rule="evenodd">
        <g id="home" transform="translate(-40.000000, -270.000000)" fill="currentColor" fill-rule="nonzero">
            <g id="Group" transform="translate(40.000000, 270.000000)">
                <path d="M15.4716279,19.556686 L3.7172093,19.556686 L3.62790698,19.5343605 C3.49395349,19.4897093 0.234418605,18.5297093 0.0111627907,15.0469186 L0.0111627907,15.024593 C3.98119038e-16,14.8571512 -0.122790698,11.0394767 1.54046512,8.75110465 C1.76372093,8.43854651 2.90232558,6.85343023 3.76186047,6.35110465 C3.86232558,6.27296512 4.09674419,6.09436047 4.36465116,5.90459302 C3.97395349,5.13436047 3.39348837,3.60505814 4.06325581,2.28784884 L4.0855814,2.24319767 C4.54325581,1.47296512 5.87162791,0.189244186 7.71348837,0.702732558 C8.0372093,0.457151163 8.75162791,0.0218023256 9.70046512,0.0106395349 C9.91255814,-0.000523255814 10.9730233,-0.0340116279 11.8325581,0.646918605 C11.8660465,0.669244186 11.8995349,0.691569767 11.9218605,0.713895349 C12.1562791,0.624593023 12.9488372,0.390174419 13.7972093,0.803197674 L13.8195349,0.814360465 C13.975814,0.8925 15.4046512,1.66273256 15.8176744,2.97994186 L15.84,3.0580814 C15.8511628,3.12505814 16.0744186,4.41994186 15.2037209,5.8152907 C15.8623256,6.1725 16.9227907,6.8980814 17.815814,8.22645349 C17.9051163,8.36040698 19.947907,11.4525 19.467907,15.1473837 C19.4455814,15.2925 18.9767442,18.7864535 15.5497674,19.5343605 L15.4716279,19.556686 Z M3.91813953,18.2171512 L15.3265116,18.2171512 C17.7823256,17.6255233 18.1395349,15.0022674 18.1395349,14.9799419 C18.5525581,11.7762209 16.7218605,8.99668605 16.6995349,8.97436047 C15.572093,7.29994186 14.132093,6.79761628 14.1209302,6.79761628 L14.0874419,6.78645349 C13.8418605,6.69715116 13.6744186,6.51854651 13.5962791,6.28412791 C13.5293023,6.07203488 13.5516279,5.82645349 13.6744186,5.62552326 L13.707907,5.58087209 L13.7413953,5.53622093 C14.6009302,4.55389535 14.5451163,3.54924419 14.5227907,3.33715116 C14.2883721,2.70087209 13.5181395,2.17622093 13.2167442,2.00877907 C12.8037209,1.81901163 12.4018605,1.9752907 12.3906977,1.9752907 C12.1897674,2.05343023 11.4976744,2.18738372 11.1516279,1.81901163 C11.1293023,1.79668605 11.0623256,1.75203488 11.0176744,1.71854651 C10.504186,1.31668605 9.77860465,1.36133721 9.76744186,1.36133721 L9.7227907,1.36133721 C8.98604651,1.3725 8.42790698,1.8525 8.42790698,1.86366279 L8.34976744,1.93063953 L8.26046512,1.9752907 C7.95906977,2.10924419 7.62418605,2.07575581 7.50139535,2.05343023 L7.42325581,2.03110465 C6.15069767,1.64040698 5.38046512,2.72319767 5.25767442,2.9352907 C4.81116279,3.86180233 5.48093023,5.23482558 5.78232558,5.6925 L5.82697674,5.75947674 L5.84930233,5.83761628 C5.98325581,6.18366279 5.84930233,6.56319767 5.5255814,6.78645349 L5.46976744,6.81994186 C5.0455814,7.06552326 4.5544186,7.45622093 4.5544186,7.45622093 L4.50976744,7.4897093 L4.45395349,7.52319767 C4.01860465,7.7352907 3.1255814,8.82924419 2.62325581,9.54366279 C1.26139535,11.4078488 1.33953488,14.7901744 1.33953488,14.9687791 C1.49581395,17.2571512 3.49395349,18.0720349 3.91813953,18.2171512 Z M11.1069767,1.78552326 C11.1569767,1.81885659 11.1569767,1.85218992 11.2069767,1.88552326 C11.2069767,1.85218992 11.1569767,1.81885659 11.1069767,1.78552326 Z" id="Shape"></path>
                <path d="M12.4911628,12.1334302 L7.04372093,12.1334302 C6.69767442,12.1334302 6.41860465,11.8320349 6.41860465,11.4636628 C6.41860465,11.0952907 6.69767442,10.7938953 7.04372093,10.7938953 L12.4911628,10.7938953 C12.8372093,10.7938953 13.1162791,11.0952907 13.1162791,11.4636628 C13.1162791,11.8320349 12.8372093,12.1334302 12.4911628,12.1334302 Z" id="Path"></path>
                <path d="M7.40093023,8.03668605 L10.4037209,11.0394767 C10.6604651,11.2962209 10.6604651,11.7315698 10.4037209,11.988314 C10.1469767,12.2450581 9.71162791,12.2450581 9.45488372,11.988314 L6.45209302,8.98552326 C6.19534884,8.72877907 6.19534884,8.29343023 6.45209302,8.03668605 C6.72,7.77994186 7.14418605,7.77994186 7.40093023,8.03668605 L7.40093023,8.03668605 Z" id="Path"></path>
                <path d="M9.13116279,11.0394767 L12.1339535,8.03668605 C12.3906977,7.77994186 12.8260465,7.77994186 13.0827907,8.03668605 C13.3395349,8.29343023 13.3395349,8.72877907 13.0827907,8.98552326 L10.08,11.988314 C9.82325581,12.2450581 9.38790698,12.2450581 9.13116279,11.988314 C8.8744186,11.720407 8.8744186,11.2962209 9.13116279,11.0394767 L9.13116279,11.0394767 Z" id="Path"></path>
                <path d="M10.4372093,11.876686 L10.4372093,16.4087791 C10.4372093,16.6990116 10.135814,16.9334302 9.76744186,16.9334302 C9.39906977,16.9334302 9.09767442,16.6990116 9.09767442,16.4087791 L9.09767442,11.876686 C9.09767442,11.5864535 9.39906977,11.3520349 9.76744186,11.3520349 C10.135814,11.3520349 10.4372093,11.5864535 10.4372093,11.876686 L10.4372093,11.876686 Z" id="Path"></path>
                <path d="M12.4911628,14.5892442 L7.04372093,14.5892442 C6.69767442,14.5892442 6.41860465,14.2878488 6.41860465,13.9194767 C6.41860465,13.5511047 6.69767442,13.2497093 7.04372093,13.2497093 L12.4911628,13.2497093 C12.8372093,13.2497093 13.1162791,13.5511047 13.1162791,13.9194767 C13.1162791,14.2878488 12.8372093,14.5892442 12.4911628,14.5892442 Z" id="Path"></path>
            </g>
        </g>
    </g>
</svg>
