<?xml version="1.0" encoding="UTF-8"?>
<svg width="17px" height="20px" viewBox="0 0 17 20" version="1.1" xmlns="http://www.w3.org/2000/svg" xmlns:xlink="http://www.w3.org/1999/xlink">
    <!-- Generator: Sketch 64 (93537) - https://sketch.com -->
    <title>Group</title>
    <g id="BCtrend" stroke="none" stroke-width="1" fill="none" fill-rule="evenodd">
        <g id="Alert" transform="translate(-61.000000, -130.000000)" fill="currentColor" fill-rule="nonzero">
            <g id="Group" transform="translate(61.000000, 130.000000)">
                <path d="M1.29464286,16.25 C1.29464286,16.6450893 1.61383929,16.9642857 2.00892857,16.9642857 L14.8214286,16.9642857 C15.2165179,16.9642857 15.5357143,16.6450893 15.5357143,16.25 L15.5357143,11.0491071 C15.5357143,7.11607143 12.3482143,3.92857143 8.41517857,3.92857143 C4.48214286,3.92857143 1.29464286,7.11607143 1.29464286,11.0491071 L1.29464286,16.25 Z M2.90178571,11.0491071 C2.90178571,8.00446429 5.37053571,5.53571429 8.41517857,5.53571429 C11.4598214,5.53571429 13.9285714,8.00446429 13.9285714,11.0491071 L13.9285714,15.3571429 L6.00446429,15.3571429 L6.00446429,11.5401786 C6.00446429,11.4174107 5.90401786,11.3169643 5.78125,11.3169643 L4.79910714,11.3169643 C4.67633929,11.3169643 4.57589286,11.4174107 4.57589286,11.5401786 L4.57589286,15.3571429 L2.90178571,15.3571429 L2.90178571,11.0491071 Z M1.828125,5.41294643 L2.71205357,4.52901786 C2.78125,4.45982143 2.78125,4.34598214 2.71205357,4.27678571 L1.19642857,2.76116071 C1.12723214,2.69196429 1.01339286,2.69196429 0.944196429,2.76116071 L0.0602678571,3.64508929 C-0.00892857143,3.71428571 -0.00892857143,3.828125 0.0602678571,3.89732143 L1.57589286,5.41294643 C1.64508929,5.48214286 1.75669643,5.48214286 1.828125,5.41294643 Z M16.7745536,3.64508929 L15.890625,2.76116071 C15.8214286,2.69196429 15.7075893,2.69196429 15.6383929,2.76116071 L14.1227679,4.27678571 C14.0535714,4.34598214 14.0535714,4.45982143 14.1227679,4.52901786 L15.0066964,5.41294643 C15.0758929,5.48214286 15.1897321,5.48214286 15.2589286,5.41294643 L16.7745536,3.89732143 C16.84375,3.82589286 16.84375,3.71428571 16.7745536,3.64508929 L16.7745536,3.64508929 Z M15.5580357,18.3928571 L1.27232143,18.3928571 C0.877232143,18.3928571 0.558035714,18.7120536 0.558035714,19.1071429 L0.558035714,19.6428571 C0.558035714,19.7410714 0.638392857,19.8214286 0.736607143,19.8214286 L16.09375,19.8214286 C16.1919643,19.8214286 16.2723214,19.7410714 16.2723214,19.6428571 L16.2723214,19.1071429 C16.2723214,18.7120536 15.953125,18.3928571 15.5580357,18.3928571 Z M7.79017857,2.5 L9.04017857,2.5 C9.13839286,2.5 9.21875,2.41964286 9.21875,2.32142857 L9.21875,0.178571429 C9.21875,0.0803571429 9.13839286,0 9.04017857,0 L7.79017857,0 C7.69196429,0 7.61160714,0.0803571429 7.61160714,0.178571429 L7.61160714,2.32142857 C7.61160714,2.41964286 7.69196429,2.5 7.79017857,2.5 Z" id="Shape" />
            </g>
        </g>
    </g>
</svg>
