<?xml version="1.0" encoding="UTF-8"?>
<svg width="20px" height="20px" viewBox="0 0 20 20" version="1.1" xmlns="http://www.w3.org/2000/svg" xmlns:xlink="http://www.w3.org/1999/xlink">
    <!-- Generator: Sketch 64 (93537) - https://sketch.com -->
    <title>Group</title>
    <desc>Created with Sketch.</desc>
    <g id="BCtrend" stroke="none" stroke-width="1" fill="none" fill-rule="evenodd">
        <g id="home" transform="translate(-40.000000, -210.000000)" fill="currentColor" fill-rule="nonzero">
            <g id="Group" transform="translate(40.000000, 210.000000)">
                <path d="M4.28571429,7.14285714 C5.0746925,7.14285714 5.71428571,7.78245036 5.71428571,8.57142857 L5.71428571,15.7142857 C5.71428571,16.5032639 5.0746925,17.1428571 4.28571429,17.1428571 L1.42857143,17.1428571 C0.639593215,17.1428571 0,16.5032639 0,15.7142857 L0,8.57142857 C0,7.78245036 0.639593215,7.14285714 1.42857143,7.14285714 L4.28571429,7.14285714 Z M11.4285714,0 C12.2175496,0 12.8571429,0.639593215 12.8571429,1.42857143 L12.8571429,15.7142857 C12.8571429,16.5032639 12.2175496,17.1428571 11.4285714,17.1428571 L8.57142857,17.1428571 C7.78245036,17.1428571 7.14285714,16.5032639 7.14285714,15.7142857 L7.14285714,1.42857143 C7.14285714,0.639593215 7.78245036,0 8.57142857,0 L11.4285714,0 Z M18.5714286,2.85714286 C19.3604068,2.85714286 20,3.49673607 20,4.28571429 L20,15.7142857 C20,16.5032639 19.3604068,17.1428571 18.5714286,17.1428571 L15.7142857,17.1428571 C14.9253075,17.1428571 14.2857143,16.5032639 14.2857143,15.7142857 L14.2857143,4.28571429 C14.2857143,3.49673607 14.9253075,2.85714286 15.7142857,2.85714286 L18.5714286,2.85714286 Z M4.28571429,8.57142857 L1.42857143,8.57142857 L1.42857143,15.7142857 L4.28571429,15.7142857 L4.28571429,8.57142857 Z M11.4285714,1.42857143 L8.57142857,1.42857143 L8.57142857,15.7142857 L11.4285714,15.7142857 L11.4285714,1.42857143 Z M18.5714286,4.28571429 L15.7142857,4.28571429 L15.7142857,15.7142857 L18.5714286,15.7142857 L18.5714286,4.28571429 Z" id="Shape"></path>
                <path d="M0.714285714,18.5714286 L19.2857143,18.5714286 C19.7619048,18.5714286 20,18.8095238 20,19.2857143 L20,19.2857143 C20,19.7619048 19.7619048,20 19.2857143,20 L0.714285714,20 C0.238095238,20 0,19.7619048 0,19.2857143 L0,19.2857143 C0,18.8095238 0.238095238,18.5714286 0.714285714,18.5714286 Z" id="Path"></path>
            </g>
        </g>
    </g>
</svg>
