<?xml version="1.0" encoding="UTF-8"?>
<svg width="22px" height="20px" viewBox="0 0 22 20" version="1.1" xmlns="http://www.w3.org/2000/svg" xmlns:xlink="http://www.w3.org/1999/xlink">
    <!-- Generator: Sketch 64 (93537) - https://sketch.com -->
    <title>Group</title>
    <desc>Created with Sketch.</desc>
    <g id="BCtrend" stroke="none" stroke-width="1" fill="none" fill-rule="evenodd">
        <g id="home" transform="translate(-40.000000, -150.000000)" fill="currentColor" fill-rule="nonzero">
            <g id="Group" transform="translate(40.000000, 150.000000)">
                <path d="M0.805738119,9.09375 C0.578235592,9.09375 0.350733064,9.01875 0.199064712,8.79375 C-0.104271992,8.49375 -0.028437816,7.96875 0.274898888,7.74375 L9.22333165,0.46875 C10.0575076,-0.13125 11.2708544,-0.13125 12.0291962,0.46875 L20.9776289,7.66875 C21.2809656,7.89375 21.3567998,8.41875 21.0534631,8.71875 C20.7501264,9.01875 20.2951213,9.09375 19.9917846,8.79375 L11.119186,1.74375 C10.8916835,1.59375 10.4366785,1.59375 10.2091759,1.74375 L1.26074317,8.94375 C1.10907482,9.09375 0.957406471,9.09375 0.805738119,9.09375 Z M17.8684277,19.59375 L12.9392063,19.59375 C12.4842012,19.59375 12.1808645,19.29375 12.1808645,18.84375 L12.1808645,15.31875 C12.1808645,14.79375 11.2708544,14.26875 10.5883468,14.26875 C9.90583923,14.26875 9.0716633,14.71875 9.0716633,15.31875 L9.0716633,18.84375 C9.0716633,19.29375 8.76832659,19.59375 8.31332154,19.59375 L3.53576845,19.59375 C2.39825581,19.59375 1.56407988,18.76875 1.56407988,17.71875 L1.56407988,10.59375 C1.56407988,10.14375 1.86741658,9.84375 2.32242164,9.84375 C2.77742669,9.84375 3.0807634,10.14375 3.0807634,10.59375 L3.0807634,17.71875 C3.0807634,17.94375 3.23243175,18.09375 3.53576845,18.09375 L7.63081395,18.09375 L7.63081395,15.31875 C7.63081395,13.81875 9.22333165,12.76875 10.664181,12.76875 C12.1050303,12.76875 13.7733822,13.81875 13.7733822,15.31875 L13.7733822,18.09375 L17.9442619,18.09375 C18.1717644,18.09375 18.3234328,18.09375 18.3234328,17.64375 L18.3234328,10.59375 C18.3234328,10.14375 18.6267695,9.84375 19.0817745,9.84375 C19.5367796,9.84375 19.8401163,10.14375 19.8401163,10.59375 L19.8401163,17.71875 C19.7642821,18.84375 19.0059403,19.59375 17.8684277,19.59375 Z" id="Shape"></path>
            </g>
        </g>
    </g>
</svg>
