<?xml version="1.0" encoding="UTF-8"?>
<svg width="20px" height="20px" viewBox="0 0 20 20" version="1.1" xmlns="http://www.w3.org/2000/svg">
    <title>Group 8</title>
    <desc>Created with Sketch.</desc>
    <g id="BCtrend" stroke="none" stroke-width="1" fill="none" fill-rule="evenodd">
        <g id="Funding-Rate" transform="translate(-40.000000, -510.000000)" fill="currentColor">
            <g id="Group-8" transform="translate(40.000000, 510.000000)">
                <path d="M0.987654306,-8.8817842e-15 C0.444444421,-8.8817842e-15 -1.38200562e-12,0.444444444 -1.38200562e-12,0.987654329 L-1.38200562e-12,18.271605 C-1.38200562e-12,18.8148148 0.444444444,19.2592593 0.987654306,19.2592593 L18.2716049,19.2592593 C18.8148148,19.2592593 19.262334,18.9368299 19.262334,18.39362 C19.262334,17.8504101 18.8148148,17.4829937 18.2716049,17.4829937 L1.76012116,17.4829937 L1.76012116,0.987654329 C1.76012116,0.444444444 1.40104754,-8.8817842e-15 0.857837659,-8.8817842e-15" id="Path" />
                <path d="M7.64702756,7.54213772 C7.06168841,7.38073716 7.01481559,7.58006645 6.767902,7.97512818 L3.23831866,13.9953952 C2.94202236,14.4892223 3.05110857,14.9793104 3.49555304,15.226224 C3.69308389,15.3249894 3.80246914,15.308642 3.95061727,15.308642 C4.29629627,15.308642 4.6419753,15.1111111 4.79012345,14.8148148 L7.85185185,9.58024692 L11.5555556,10.8148148 C12,10.962963 12.3087325,11.0026456 12.5556461,10.6075839 L15.5061728,5.58024692 L16.4444444,6.07407407 C17.037037,6.41975308 17.7777778,5.97530863 17.728395,5.33333333 L17.4814815,1.48148148 C17.4320988,0.839506181 16.691358,0.444444444 16.1481481,0.740740741 L12.7407407,2.61728396 C12.1481481,2.91358025 12.1975309,3.75308644 12.8395062,4.09876544 L13.979205,4.74705168 L11.3927726,9.02433016 L7.64702756,7.54213772 Z" id="Path" />
            </g>
        </g>
    </g>
</svg>
