<?xml version="1.0" encoding="UTF-8"?>
<svg width="20px" height="20px" viewBox="0 0 20 20" version="1.1" xmlns="http://www.w3.org/2000/svg" xmlns:xlink="http://www.w3.org/1999/xlink">
    <!-- Generator: Sketch 64 (93537) - https://sketch.com -->
    <title>Group</title>
    <desc>Created with Sketch.</desc>
    <g id="BCtrend" stroke="none" stroke-width="1" fill="none" fill-rule="evenodd">
        <g id="home" transform="translate(-40.000000, -330.000000)" fill="currentColor" fill-rule="nonzero">
            <g id="Group" transform="translate(40.000000, 330.000000)">
                <path d="M12.9111111,19.4441429 C12.6177246,19.4457923 12.3339155,19.3368313 12.1133333,19.1378571 C11.8033333,18.8452857 10.75,18.0064286 10.0022222,18.0064286 C9.24666667,18.0064286 8.19666667,18.8452857 7.89111112,19.1378571 C7.56888891,19.4441429 7.04666667,19.5355714 6.64444445,19.3527143 L6.58333333,19.3241429 L3.55,17.5207143 C3.19377033,17.2340364 3.02452117,16.7656863 3.11222221,16.3092857 C3.20444443,15.8898571 3.38666667,14.5367143 3.01222221,13.8715714 C2.63888888,13.2087143 1.40333333,12.6944286 1.00111112,12.5618571 C0.581976535,12.4161295 0.269705985,12.0522854 0.18111112,11.6064286 C0.174444453,11.5607143 0,10.507 0,9.73442858 C0,8.9607143 0.174444453,7.90928571 0.18111112,7.86242858 C0.253333333,7.43500002 0.597777786,7.03385716 1,6.90585715 C1.40333333,6.77785714 2.63888888,6.26357143 3.01222221,5.59614287 C3.39,4.92757144 3.20777776,3.57785716 3.11222221,3.15842858 C3.02182214,2.70180839 3.19158712,2.23203089 3.55,1.947 L3.60666667,1.90700001 L6.64,0.11157142 C7.04333333,-0.0712857321 7.56666667,0.0201428571 7.88666667,0.32642858 C8.19666667,0.619000018 9.25,1.45785715 9.99777779,1.45785715 C10.7533333,1.45785715 11.8033333,0.619000018 12.1088889,0.32642858 C12.4311111,0.0201428571 12.9533333,-0.0712857054 13.3555555,0.11157142 L13.4166667,0.140142857 L16.45,1.94357143 C16.7988889,2.20985713 16.9833333,2.72071428 16.8877778,3.15500001 C16.7955556,3.57442859 16.6133333,4.92757144 16.9877778,5.59271429 C17.3611111,6.25557145 18.5966667,6.76985716 18.9988889,6.90242858 C19.4022222,7.03042859 19.7466667,7.43157145 19.8188889,7.85785714 C19.8255555,7.90242857 20,8.95728571 20,9.72985714 C20,10.5035714 19.8255555,11.555 19.8188889,11.6018571 C19.7308545,12.047874 19.4189999,12.4121617 19,12.5584286 C18.5966667,12.6864286 17.3611111,13.2007143 16.9877778,13.8681429 C16.61,14.5367143 16.7922222,15.8864286 16.8877778,16.3058571 C16.9844445,16.7401428 16.8022222,17.251 16.45,17.5172857 L16.3933333,17.5572857 L13.36,19.3527143 C13.2166667,19.411 13.0644445,19.4441428 12.9111111,19.4441429 Z M4.32666667,16.5207143 L7.09666667,18.163 C7.39888888,17.8864286 8.72333333,16.7367143 9.99777779,16.7367143 C11.2733333,16.7367143 12.5977778,17.8818571 12.9,18.163 L15.67,16.5207143 C15.5888889,16.1207143 15.2788889,14.3687143 15.92,13.2338571 C16.5777778,12.0624286 18.2977778,11.4601428 18.6077778,11.3572857 C18.6366667,11.1858571 18.7677778,10.3287143 18.7677778,9.72985714 C18.7677778,9.13214285 18.6366667,8.27385715 18.6077778,8.10242858 C18.2977778,8.0007143 16.5777778,7.39842857 15.9188889,6.22814285 C15.2822222,5.09214284 15.5888889,3.34128571 15.67,2.93900001 L12.9,1.29785713 C12.5977778,1.57442855 11.2733333,2.72414285 9.99777779,2.72414285 C8.72,2.72414285 7.39888891,1.57785712 7.09666667,1.29785713 L4.32666667,2.93900001 C4.40777779,3.34128573 4.71777779,5.09214287 4.07666667,6.22700001 C3.41777779,7.39842857 1.69888888,8.0007143 1.38777779,8.10242858 C1.36,8.27385715 1.22888888,9.13100001 1.22888888,9.72985714 C1.22888888,10.3287143 1.36,11.1858571 1.38888888,11.3572857 C1.69888888,11.4601428 3.41777776,12.0624286 4.07777779,13.2338571 C4.71444445,14.3687143 4.40777779,16.1195714 4.32666667,16.5207143 Z M9.99777779,14.0407145 C7.68121501,14.04135 5.80156936,12.1126022 5.79666667,9.72985714 C5.79666667,7.35500001 7.68333333,5.42128556 10.0022222,5.42128556 C12.3179196,5.42064726 14.1972072,7.34800523 14.2033333,9.72985714 C14.2033333,12.1058571 12.3166667,14.0395714 9.99777779,14.0395714 L9.99777779,14.0407145 Z M9.99777779,6.6864266 C8.36149834,6.68516209 7.03317829,8.04683217 7.02888888,9.72985714 C7.03317829,11.4128821 8.36149834,12.7745522 9.99777779,12.7732877 C11.6344908,12.775183 12.9634878,11.4133287 12.9677778,9.72985714 C12.9634878,8.0463856 11.6344908,6.68453125 9.99777779,6.6864266 L9.99777779,6.6864266 Z" id="shape"></path>
            </g>
        </g>
    </g>
</svg>
