<?xml version="1.0" encoding="UTF-8"?>
<svg width="20px" height="20px" viewBox="0 0 20 20" version="1.1" xmlns="http://www.w3.org/2000/svg">
  <title>Group</title>
  <desc>Created with Sketch.</desc>
  <g id="BCtrend" stroke="none" stroke-width="1" fill="none" fill-rule="evenodd">
    <g id="Social-Media-Analysis" transform="translate(-60.000000, -310.000000)" fill="currentColor">
      <g id="group" transform="translate(60.000000, 310.000000)">
        <path
          d="M10.7142857,0 L10.7157143,8.76285714 C11.2753491,9.08639346 11.5479892,9.74541206 11.3805015,10.3697635 C11.2130138,10.994115 10.6471405,11.4281951 10.0007143,11.4281951 C9.35428807,11.4281951 8.78841475,10.994115 8.62092706,10.3697635 C8.45343937,9.74541206 8.72607949,9.08639346 9.28571429,8.76285714 L9.28571429,5.77142857 C7.28146879,6.10988608 5.79065008,7.80965797 5.71648018,9.84092662 C5.64231028,11.8721953 7.005193,13.6761674 8.97941717,14.1598951 C10.9536413,14.6436227 12.9961064,13.6740345 13.8693719,11.8385616 C14.7426374,10.0030886 14.2064717,7.80666168 12.5857143,6.58 L13.4057143,5.40857143 C15.6044887,7.03972748 16.3374051,10.0012033 15.1532001,12.469591 C13.968995,14.9379786 11.2004445,16.2196312 8.55217054,15.5254235 C5.90389661,14.8312158 4.12009634,12.3562285 4.29907201,9.62433409 C4.47804767,6.89243971 6.56950494,4.67133367 9.28571429,4.32857143 L9.28571429,1.45857143 C5.152023,1.80374976 1.85870054,5.05943868 1.46603851,9.18889001 C1.07337647,13.3183413 3.69407069,17.1363834 7.68862356,18.2544617 C11.6831764,19.37254 15.9051327,17.4697609 17.7132506,13.7364968 C19.5213685,10.0032326 18.3967097,5.51094744 15.0428571,3.07 L15.8628571,1.89857143 C19.7946348,4.74354551 21.1161283,10.0008645 18.996912,14.3668323 C16.8776957,18.7328002 11.9296157,20.9469033 7.26204257,19.6178007 C2.5944694,18.2886981 -0.445005914,13.8001195 0.0536210581,8.97268497 C0.552248031,4.14525044 4.44501698,0.37270516 9.28571429,0.0257142857 L9.28571429,0 L10.7142857,0 L10.7142857,0 Z"
          id="path"></path>
      </g>
    </g>
  </g>
</svg>
