<?xml version="1.0" encoding="UTF-8"?>
<svg width="20px" height="20px" viewBox="0 0 20 20" version="1.1" xmlns="http://www.w3.org/2000/svg">
    <title>Group</title>
    <desc>Created with Sketch.</desc>
    <g id="BCtrend" stroke="none" stroke-width="1" fill="none" fill-rule="evenodd">
        <g id="Stablecoin-Supply-Ratio" transform="translate(-60.000000, -370.000000)" fill="currentColor">
            <g id="Group" transform="translate(60.000000, 370.000000)">
                <path d="M8.11594204,9.85507247 L8.11594204,11.5942029 L17.7971014,11.5942029 C17.1014493,15.4202899 14.0289855,17.9710145 9.85507247,17.9710145 C5.04347826,17.9710145 1.73913043,14.6666667 1.73913043,9.85507247 C1.73913043,5.68115943 4.28985508,2.60869565 8.11594204,1.91304348 L8.11594204,9.85507247 L9.85507247,9.85507247 L9.85507247,-1.54465812e-15 C4.46376812,-1.54465812e-15 -1.54465812e-15,4.40579709 -1.54465812e-15,9.85507247 C-1.54465812e-15,15.2463768 4.40579709,19.7101449 9.85507247,19.7101449 C15.2463768,19.7101449 19.7101449,15.2463768 19.7101449,9.85507247 L8.11594204,9.85507247 Z M19.1304348,8.69565217 L19.7101449,8.63768117 C19.7101449,3.82608696 15.884058,-1.54465812e-15 11.0724638,-1.54465812e-15 L11.0144927,1.73913043 L11.0724638,1.73913043 L11.0144927,6.95652174 L11.0144927,7.53623187 L11.0724638,7.53623187 L11.0144927,8.69565217 L19.1304348,8.69565217 Z M12.7536232,1.85507247 C15.3043478,2.43478261 17.5072464,4.69565217 17.9710145,6.95652174 L12.7536232,6.95652174 L12.7536232,1.85507247 Z" id="Shape" />
            </g>
        </g>
    </g>
</svg>
